<svg xmlns="http://www.w3.org/2000/svg" width="720" height="420" viewBox="0 0 720 420" role="img" aria-label="Lennox 42 facade placeholder">
  <rect width="720" height="420" fill="#f6f7f4"/>
  <rect x="0" y="300" width="720" height="120" fill="#dfe8dd"/>
  <path d="M0 312 C140 286 245 338 366 308 C492 276 588 300 720 286 V420 H0 Z" fill="#cad9c8"/>
  <path d="M72 168 L162 92 H540 L630 168 Z" fill="#273c2c"/>
  <rect x="135" y="130" width="430" height="100" rx="8" fill="#eef2f5" stroke="#c8d1d8"/><rect x="180" y="158" width="72" height="46" rx="4" fill="#9ec5d6"/><rect x="320" y="158" width="72" height="46" rx="4" fill="#9ec5d6"/><rect x="458" y="158" width="72" height="46" rx="4" fill="#9ec5d6"/>
  <rect x="92" y="188" width="536" height="126" rx="10" fill="#ffffff" stroke="#cfd7dd" stroke-width="3"/>
  <rect x="122" y="224" width="92" height="90" rx="4" fill="#d9dee4"/>
  <rect x="244" y="218" width="82" height="56" rx="4" fill="#9ec5d6"/>
  <rect x="358" y="218" width="82" height="56" rx="4" fill="#9ec5d6"/>
  <rect x="474" y="214" width="112" height="100" rx="4" fill="#e8ecef" stroke="#b7c0c8"/>
  <rect x="502" y="238" width="56" height="76" rx="3" fill="#d6c7ae" opacity="0.9"/>
  <rect x="84" y="312" width="552" height="14" fill="#273c2c" opacity="0.86"/>
  <circle cx="640" cy="278" r="25" fill="#8fae7d"/>
  <rect x="48" y="318" width="624" height="10" rx="5" fill="#9aa58f"/>
  <text x="48" y="50" font-family="Inter, Arial, sans-serif" font-size="28" fill="#1f2933">Lennox 42</text>
  <text x="50" y="78" font-family="Inter, Arial, sans-serif" font-size="15" fill="#53606a">Summit & Co Living - 392 sqm - 6 bed</text>
  <rect x="50" y="354" width="182" height="34" rx="17" fill="#273c2c" opacity="0.94"/>
  <text x="72" y="377" font-family="Inter, Arial, sans-serif" font-size="15" fill="#ffffff">14.8m x 24.8m</text>
</svg>